<?xml version="1.0" standalone="no"?>
<!DOCTYPE svg PUBLIC "-//W3C//DTD SVG 20010904//EN"
 "http://www.w3.org/TR/2001/REC-SVG-20010904/DTD/svg10.dtd">
<svg version="1.0" xmlns="http://www.w3.org/2000/svg"
 width="2800.000000pt" height="2800.000000pt" viewBox="0 0 2800.000000 2800.000000"
 preserveAspectRatio="xMidYMid meet">

<g transform="translate(0.000000,2800.000000) scale(0.100000,-0.100000)"
fill="#000000" stroke="none">
<path d="M8525 18745 c-208 -526 -382 -958 -385 -960 -3 -2 -30 68 -59 156
l-52 159 -529 0 c-511 0 -529 1 -542 19 -8 11 -96 104 -197 206 l-183 187
-192 -191 -191 -191 -3098 0 c-2746 0 -3097 -2 -3097 -15 0 -13 351 -15 3102
-15 l3103 0 188 188 188 187 197 -203 197 -203 519 -2 519 -2 62 -185 c55
-163 64 -182 73 -160 5 14 175 441 377 950 202 509 370 928 374 932 3 4 175
-621 380 -1390 206 -768 379 -1413 384 -1431 6 -25 11 -31 16 -20 4 7 82 308
172 667 l164 652 597 0 596 0 391 254 390 254 378 -264 377 -264 7628 0 c6774
0 7628 2 7628 15 0 13 -854 15 -7626 15 l-7626 0 -379 264 -379 265 -388 -252
-387 -252 -610 -5 -610 -5 -155 -610 c-86 -335 -158 -617 -161 -625 -8 -20 16
-107 -398 1445 -199 743 -365 1358 -369 1368 -5 12 -123 -274 -387 -938z"/>
</g>
</svg>
