<?xml version="1.0" standalone="no"?>
<!DOCTYPE svg PUBLIC "-//W3C//DTD SVG 20010904//EN"
 "http://www.w3.org/TR/2001/REC-SVG-20010904/DTD/svg10.dtd">
<svg version="1.0" xmlns="http://www.w3.org/2000/svg"
 width="2500.000000pt" height="2500.000000pt" viewBox="0 0 2500.000000 2500.000000"
 preserveAspectRatio="xMidYMid meet">

<g transform="translate(0.000000,2500.000000) scale(0.100000,-0.100000)"
fill="#000000" stroke="none">
<path d="M8666 22529 c-54 -134 -224 -561 -378 -949 -154 -388 -285 -716 -290
-730 -10 -23 -12 -21 -33 40 l-22 65 -539 2 -539 2 -222 228 -222 228 -213
-212 -213 -213 -1668 0 -1667 0 0 -115 0 -115 1712 0 1713 0 166 166 166 166
178 -181 178 -181 503 0 502 0 92 -275 c50 -151 95 -277 99 -279 4 -3 13 12
20 32 33 92 724 1828 731 1836 4 4 11 0 14 -10 7 -25 674 -2520 719 -2689 33
-128 34 -130 64 -133 l29 -3 189 748 c103 411 192 758 196 771 l9 22 577 0
578 0 363 235 c200 129 367 235 370 235 4 0 167 -110 362 -245 l355 -245 1338
0 1337 0 0 110 0 110 -1297 0 -1298 0 -390 270 c-214 148 -396 270 -403 270
-7 0 -194 -117 -415 -260 l-402 -260 -630 0 -630 0 -120 -480 c-66 -264 -122
-476 -126 -472 -4 4 -169 617 -368 1362 -199 745 -365 1364 -370 1374 -6 15
-32 -41 -105 -225z"/>
</g>
</svg>
