<?xml version="1.0" standalone="no"?>
<!DOCTYPE svg PUBLIC "-//W3C//DTD SVG 20010904//EN"
 "http://www.w3.org/TR/2001/REC-SVG-20010904/DTD/svg10.dtd">
<svg version="1.0" xmlns="http://www.w3.org/2000/svg"
 width="2475.000000pt" height="930.000000pt" viewBox="0 0 2475.000000 930.000000"
 preserveAspectRatio="xMidYMid meet">

<g transform="translate(0.000000,930.000000) scale(0.100000,-0.100000)"
fill="#000000" stroke="none">
<path d="M8106 7819 c-697 -95 -1286 -512 -1596 -1129 -98 -197 -156 -375
-197 -605 -24 -141 -24 -509 0 -650 41 -233 100 -412 199 -608 314 -619 903
-1035 1588 -1122 162 -21 462 -16 605 10 869 156 1534 810 1696 1668 27 142
37 479 19 624 -86 699 -515 1304 -1145 1613 -190 94 -349 146 -570 186 -106
19 -491 28 -599 13z m879 -1668 c124 -497 225 -906 225 -910 0 -3 -101 239
-225 538 -123 299 -226 546 -229 549 -3 3 -9 -4 -13 -16 -62 -162 -770 -1859
-774 -1854 -7 8 -461 1823 -457 1827 2 2 104 -244 228 -545 124 -302 228 -546
232 -542 5 5 582 1392 770 1852 6 14 12 20 14 15 3 -6 105 -417 229 -914z"/>
<path d="M3906 7573 c-9 -21 -216 -522 -460 -1113 -245 -591 -448 -1075 -452
-1075 -4 0 -343 494 -754 1097 -410 604 -749 1101 -754 1105 -4 4 -3 -5 3 -20
28 -73 1485 -3605 1497 -3627 l13 -25 14 35 c159 381 1501 3630 1504 3643 5
16 -14 17 -294 17 l-300 0 -17 -37z"/>
<path d="M20958 5777 c-416 -1008 -760 -1840 -764 -1850 -6 -16 11 -17 296
-15 l302 3 461 1113 c253 611 462 1112 466 1112 3 -1 345 -500 760 -1110 414
-611 755 -1110 758 -1110 2 0 2 4 -1 9 -3 5 -346 834 -761 1842 -416 1008
-757 1834 -758 1835 -1 1 -343 -822 -759 -1829z"/>
<path d="M12620 5760 l0 -1770 755 0 755 0 0 265 0 265 -465 0 -465 0 0 1505
0 1505 -290 0 -290 0 0 -1770z"/>
<path d="M16040 7265 l0 -265 460 0 460 0 0 -1505 0 -1505 285 0 285 0 0 1505
0 1505 460 0 460 0 0 265 0 265 -1205 0 -1205 0 0 -265z"/>
<path d="M7866 2088 c-3 -57 -8 -186 -11 -288 -3 -102 -8 -218 -11 -257 l-6
-73 41 0 41 0 1 98 c1 53 4 164 8 246 l6 148 124 -211 c69 -116 127 -211 130
-211 3 0 57 87 119 194 62 106 119 202 127 212 13 17 14 -2 15 -152 0 -94 3
-205 6 -247 l7 -77 37 0 37 0 -3 48 c-2 26 -9 187 -15 357 -6 171 -13 312 -16
315 -8 8 -29 -25 -169 -277 -75 -134 -139 -243 -142 -243 -4 1 -74 118 -155
260 -82 143 -152 260 -157 260 -4 0 -10 -46 -14 -102z"/>
<path d="M10943 2183 l-73 -4 0 -353 0 -353 103 -6 c190 -12 309 24 396 118
70 76 86 122 86 245 0 97 -2 109 -29 158 -37 66 -102 127 -170 158 -50 23
-166 45 -216 42 -14 -1 -58 -4 -97 -5z m258 -87 c107 -39 173 -137 173 -260 0
-133 -46 -218 -145 -269 -60 -30 -173 -46 -243 -33 l-36 7 0 284 c0 217 3 285
13 289 23 11 192 -2 238 -18z"/>
<path d="M13703 2176 c-182 -60 -287 -231 -253 -416 36 -196 187 -310 394
-298 87 6 193 39 203 65 3 8 1 25 -5 38 l-11 24 -68 -26 c-219 -85 -415 24
-431 238 -7 101 17 171 81 236 100 99 213 107 398 29 11 -5 19 1 27 19 18 40
16 44 -45 72 -70 32 -221 42 -290 19z"/>
<path d="M15211 2168 c-5 -13 -75 -171 -155 -352 -80 -181 -146 -333 -146
-338 0 -4 17 -8 38 -8 l39 0 43 100 42 100 154 0 c111 0 155 -3 161 -12 4 -7
24 -51 45 -98 l36 -85 41 -3 c23 -2 41 0 41 5 0 18 -310 708 -319 711 -6 2
-15 -7 -20 -20z m82 -286 c32 -74 57 -138 57 -143 0 -5 -55 -9 -126 -9 -69 0
-124 4 -122 9 39 101 125 288 129 283 3 -4 31 -67 62 -140z"/>
<path d="M9500 1825 l0 -355 205 0 205 0 0 35 0 35 -165 0 -165 0 0 130 0 130
150 0 150 0 0 35 0 35 -150 0 -150 0 0 120 0 120 165 0 165 0 0 35 0 35 -205
0 -205 0 0 -355z"/>
<path d="M12410 1825 l0 -355 40 0 40 0 0 355 0 355 -40 0 -40 0 0 -355z"/>
<path d="M16450 1825 l0 -355 210 0 210 0 0 35 0 35 -170 0 -170 0 0 320 0
320 -40 0 -40 0 0 -355z"/>
</g>
</svg>
